# xmcd
#
# Track frame offsets: 
#        150
#        16774
#        34290
#        55384
#        74419
#        87305
#        107090
#        125163
#        141031
#        161905
#        179578
#        194379
#        209821
#        231628
#        250699
#        274110
#        290921
#        310083
#        330103
#
# Disc length: 4668 seconds
#
# Revision: 0
# Processed by: cddbd v1.5.2PL0 Copyright (c) Steve Scherf et al.
# Submitted via: ExactAudioCopy v1.1
#
DISCID=2c123a13
DTITLE=Beverly Jo SCOTT - Collection [CD1)
DYEAR=2012
DGENRE=Blues
TTITLE0=C'est extra
TTITLE1=Glory
TTITLE2=Crazy Lazy
TTITLE3=10.000 Dragons
TTITLE4=Heavenly Lover
TTITLE5=Rip The Sack
TTITLE6=She's Your Woman
TTITLE7=Light That Torch
TTITLE8=Magalie
TTITLE9=One Shot Shy
TTITLE10=Chippin' and Dippin'
TTITLE11=One Way Love
TTITLE12=Love Goes Stumbling
TTITLE13=Make It Rough
TTITLE14=Alabam'
TTITLE15=Hey Nana
TTITLE16=Cool
TTITLE17=When The Nickel Drops
TTITLE18=Jean Baltazaarrr
EXTD=
EXTT0=
EXTT1=
EXTT2=
EXTT3=
EXTT4=
EXTT5=
EXTT6=
EXTT7=
EXTT8=
EXTT9=
EXTT10=
EXTT11=
EXTT12=
EXTT13=
EXTT14=
EXTT15=
EXTT16=
EXTT17=
EXTT18=
PLAYORDER=
